<?xml version="1.0" standalone="no"?>
<!DOCTYPE svg PUBLIC "-//W3C//DTD SVG 20010904//EN"
 "http://www.w3.org/TR/2001/REC-SVG-20010904/DTD/svg10.dtd">
<svg version="1.0" xmlns="http://www.w3.org/2000/svg"
 width="192.000000pt" height="192.000000pt" viewBox="0 0 512.000000 512.000000"
 preserveAspectRatio="xMidYMid meet">

<defs>
  <clipPath id="rounded-icon">
    <rect x="0" y="0" width="512" height="512" rx="52" ry="52" />
  </clipPath>
</defs>
<g clip-path="url(#rounded-icon)">
<rect width="512" height="512" fill="#ffffff" />
<g transform="translate(0.000000,512.000000) scale(0.100000,-0.100000)"
fill="#293D58" stroke="none">
<path d="M0 2560 l0 -2560 2560 0 2560 0 0 2560 0 2560 -2560 0 -2560 0 0
-2560z m4294 2194 c93 -24 173 -72 253 -150 178 -174 222 -432 111 -660 -46
-95 -157 -207 -255 -256 -97 -49 -164 -61 -300 -56 -110 4 -114 5 -207 51
-163 81 -268 212 -312 386 -22 88 -15 234 14 315 62 171 207 312 377 366 77
24 232 26 319 4z m-2831 -875 c26 -28 27 -34 27 -124 l0 -95 305 0 305 0 0 99
c0 90 2 103 23 127 33 38 98 38 135 0 25 -24 27 -34 30 -126 l4 -100 304 0
304 0 0 99 c0 90 2 103 23 127 33 38 98 38 135 0 25 -24 27 -34 30 -126 l4
-100 219 0 c238 0 249 -2 301 -57 15 -15 32 -41 37 -56 7 -19 11 -236 11 -653
l0 -626 24 19 c13 10 94 80 179 156 123 108 161 137 184 137 23 0 45 -20 126
-111 79 -89 97 -117 95 -138 -2 -20 -72 -87 -305 -295 l-303 -268 0 -554 c0
-533 -1 -556 -20 -594 -11 -21 -34 -49 -52 -62 l-33 -23 -1360 -2 -1360 -3
-40 23 c-22 12 -50 40 -62 62 l-23 40 0 1439 0 1439 25 43 c16 28 39 49 68 63
40 19 60 21 270 21 l227 0 0 99 c0 83 3 102 20 124 35 45 98 43 143 -4z"/>
<path d="M4055 4670 c-170 -34 -306 -153 -366 -319 -61 -169 -5 -381 130 -504
312 -280 801 -65 801 352 0 138 -47 247 -148 343 -115 110 -270 157 -417 128z
m135 -139 c5 -11 10 -84 10 -164 l0 -145 100 -57 c91 -51 100 -59 100 -86 0
-21 -7 -32 -24 -40 -20 -10 -39 -3 -137 51 -63 34 -120 69 -126 78 -18 22 -18
353 -1 370 19 19 66 15 78 -7z"/>
<path d="M847 3522 c-15 -16 -17 -49 -17 -255 l0 -237 1355 0 1355 0 0 238 c0
219 -2 240 -18 255 -16 15 -47 17 -225 17 l-207 0 0 -87 c0 -103 -12 -131 -62
-156 -33 -16 -40 -17 -71 -3 -20 8 -40 23 -46 34 -6 12 -11 64 -11 116 l0 96
-305 0 -305 0 0 -87 c0 -103 -12 -131 -62 -156 -33 -16 -40 -17 -71 -3 -20 8
-40 23 -46 34 -6 12 -11 64 -11 116 l0 96 -304 0 -304 0 -4 -99 c-3 -88 -6
-102 -26 -124 -30 -31 -68 -39 -109 -22 -45 19 -53 42 -53 149 l0 96 -218 0
c-199 0 -220 -2 -235 -18z"/>
<path d="M830 1792 c0 -856 3 -1121 12 -1130 9 -9 320 -12 1339 -12 1194 0
1329 2 1343 16 14 14 16 73 16 506 l0 490 -38 -33 c-20 -19 -191 -171 -380
-339 l-343 -305 -167 -62 c-184 -69 -218 -73 -242 -31 -14 26 -12 32 58 168
l73 140 -525 0 c-494 0 -525 1 -547 18 -30 25 -30 75 0 105 l22 22 544 3 c468
2 549 0 574 -12 l29 -15 471 417 471 417 0 378 0 377 -1355 0 -1355 0 0 -1118z
m2111 660 c31 -26 31 -78 0 -104 -22 -17 -59 -18 -756 -18 -697 0 -734 1 -756
18 -15 13 -22 30 -22 52 0 22 7 39 22 52 22 17 59 18 756 18 697 0 734 -1 756
-18z m-16 -548 c8 -4 23 -20 31 -36 12 -24 13 -33 2 -55 -26 -54 -9 -53 -773
-53 -764 0 -747 -1 -773 53 -11 22 -10 31 2 56 9 16 21 31 28 34 19 8 1463 8
1483 1z"/>
<path d="M3979 2387 l-57 -52 43 -49 42 -49 57 48 c31 27 56 51 56 55 0 3 -19
27 -42 53 l-43 47 -56 -53z"/>
<path d="M3250 1739 c-316 -281 -576 -514 -578 -518 -3 -9 67 -91 79 -91 9 0
1143 1002 1154 1020 6 9 -57 90 -74 97 -3 1 -265 -227 -581 -508z"/>
<path d="M2571 1071 c-24 -46 -22 -47 32 -23 l38 17 -25 24 -25 23 -20 -41z"/>
</g>
</g>
</svg>
